<?xml version="1.0" standalone="no"?>
<!DOCTYPE svg PUBLIC "-//W3C//DTD SVG 20010904//EN"
 "http://www.w3.org/TR/2001/REC-SVG-20010904/DTD/svg10.dtd">
<svg version="1.0" xmlns="http://www.w3.org/2000/svg"
 width="744.000000pt" height="744.000000pt" viewBox="0 0 744.000000 744.000000"
 preserveAspectRatio="xMidYMid meet">
<metadata>
Created by potrace 1.14, written by Peter Selinger 2001-2017
</metadata>
<g transform="translate(0.000000,744.000000) scale(0.100000,-0.100000)"
fill="#000000" stroke="none">
<path d="M2950 4980 c0 -387 4 -690 9 -690 5 0 64 -9 132 -21 178 -30 340 -84
512 -170 32 -16 62 -29 67 -29 7 0 9 243 8 683 l-3 682 -93 47 c-170 86 -399
157 -589 183 l-43 5 0 -690z"/>
<path d="M4370 5659 c-168 -24 -368 -88 -544 -174 l-96 -47 0 -684 c0 -376 2
-684 4 -684 2 0 52 23 112 51 152 71 323 125 480 151 l134 22 0 688 c0 649 -1
688 -17 687 -10 -1 -43 -5 -73 -10z"/>
<path d="M2830 4832 l0 -679 143 -6 c233 -11 392 -43 619 -127 118 -44 116
-44 241 9 146 62 466 121 659 121 l88 0 0 680 0 680 -35 0 -35 0 0 -630 0
-630 -22 -4 c-13 -2 -82 -13 -153 -24 -164 -26 -321 -76 -499 -160 l-138 -66
-72 37 c-225 115 -462 187 -691 209 l-30 3 -3 633 -2 632 -35 0 -35 0 0 -678z"/>
<path d="M4628 4735 l-3 -630 -160 -7 c-249 -10 -450 -50 -659 -133 -49 -19
-97 -35 -106 -35 -9 0 -55 16 -102 35 -203 81 -409 123 -650 132 l-168 6 0
629 0 628 -35 0 -35 0 0 -693 c0 -450 4 -697 10 -703 7 -7 46 -6 118 4 218 27
592 -1 764 -59 73 -24 127 -24 206 1 34 11 118 30 185 42 107 20 150 22 352
20 127 -1 257 -3 290 -5 l60 -2 3 696 2 697 -35 4 -35 4 -2 -631z"/>
<path d="M2618 3283 l-3 -48 -72 -3 -73 -3 0 -29 0 -30 75 0 76 0 -3 -132 -3
-133 -87 -3 -88 -3 0 -29 c0 -30 1 -30 55 -30 l55 0 0 -150 0 -150 35 0 c24 0
35 5 35 15 0 13 37 15 270 15 l270 0 0 35 0 35 -270 0 -270 0 0 25 c0 28 15
33 28 9 12 -21 43 -12 86 26 29 26 52 67 70 123 4 13 16 17 51 17 l45 0 0 -58
c0 -32 5 -63 12 -70 8 -8 47 -12 109 -12 90 0 99 2 113 22 24 34 20 67 -10 78
-34 13 -32 14 -36 -17 -3 -25 -8 -28 -42 -31 -70 -6 -86 3 -86 48 l0 40 135 0
135 0 0 30 0 30 -90 0 -90 0 0 135 0 135 75 0 75 0 0 30 0 30 -75 0 -75 0 0
50 0 50 -35 0 -35 0 0 -50 0 -50 -145 0 -145 0 0 50 0 50 -34 0 c-34 0 -35 -1
-38 -47z m362 -138 l0 -25 -145 0 -145 0 0 25 0 25 145 0 145 0 0 -25z m0
-110 l0 -25 -145 0 -145 0 0 25 0 25 145 0 145 0 0 -25z m0 -105 l0 -30 -145
0 -145 0 0 30 0 30 145 0 145 0 0 -30z m-246 -112 c-11 -37 -43 -77 -74 -93
-16 -8 -31 -15 -35 -15 -3 0 -5 29 -5 65 l0 65 61 0 c58 0 60 -1 53 -22z"/>
<path d="M3395 3251 c-15 -42 -45 -102 -66 -135 -21 -32 -39 -61 -39 -65 0 -9
43 -36 54 -33 5 2 7 -63 4 -150 -4 -123 -10 -165 -27 -213 -12 -33 -24 -67
-27 -76 -3 -10 4 -19 20 -27 23 -10 28 -9 40 11 16 25 44 117 48 162 l3 30 98
3 97 3 0 -81 0 -80 -51 0 c-48 0 -51 -1 -45 -22 3 -13 6 -27 6 -32 0 -15 119
-1 137 17 11 10 18 39 21 77 l4 60 89 0 89 0 0 -80 0 -80 35 0 35 0 0 80 0 80
80 0 80 0 0 35 0 35 -80 0 -80 0 0 45 0 45 75 0 75 0 0 35 0 35 -75 0 -75 0 0
39 c0 37 1 39 40 44 23 3 47 11 55 17 20 16 32 68 40 168 l7 82 -191 0 -191 0
0 -30 c0 -30 1 -30 55 -30 43 0 55 -3 55 -15 0 -29 -39 -92 -77 -125 l-38 -34
-3 32 c-3 31 -4 32 -53 32 -27 0 -49 4 -49 10 0 5 10 30 22 54 29 61 17 76
-63 76 l-58 0 6 34 c5 31 3 34 -25 38 -30 4 -31 3 -57 -71z m591 -92 c-8 -80
-19 -92 -72 -86 l-42 4 5 -33 c4 -27 2 -34 -11 -34 -12 0 -16 -10 -16 -40 0
-38 -2 -40 -29 -40 -28 0 -29 2 -24 34 5 31 3 34 -25 38 -29 4 -31 2 -42 -41
-6 -25 -22 -66 -35 -91 l-24 -45 -1 99 c0 86 2 97 13 81 13 -17 16 -17 61 14
49 34 101 112 112 169 l6 32 66 0 65 0 -7 -61z m-471 -5 c-8 -20 -15 -38 -15
-40 0 -2 -21 -4 -46 -4 -25 0 -44 3 -42 8 3 4 10 22 17 40 12 29 17 32 57 32
l44 0 -15 -36z m-35 -144 c0 -39 -1 -40 -35 -40 -34 0 -35 1 -35 40 0 39 1 40
35 40 34 0 35 -1 35 -40z m120 0 c0 -38 -2 -40 -30 -40 -28 0 -30 2 -30 40 0
38 2 40 30 40 28 0 30 -2 30 -40z m-120 -145 c0 -45 0 -45 -35 -45 -35 0 -35
0 -35 45 0 45 0 45 35 45 35 0 35 0 35 -45z m120 0 c0 -43 -1 -45 -30 -45 -29
0 -30 2 -30 45 0 43 1 45 30 45 29 0 30 -2 30 -45z m250 -50 l0 -45 -90 0
c-73 0 -90 3 -90 15 0 18 5 18 30 5 16 -9 23 -4 42 30 21 37 26 40 66 40 l42
0 0 -45z"/>
<path d="M5097 3247 c-28 -62 -40 -78 -49 -69 -9 9 -16 8 -30 -5 -25 -22 -23
-35 13 -69 17 -16 40 -41 51 -56 l19 -28 -27 -35 c-19 -26 -34 -35 -55 -35
-29 0 -35 -12 -23 -44 5 -12 21 -16 70 -16 l64 0 0 -175 0 -175 35 0 35 0 0
180 0 180 30 0 c23 0 31 -5 36 -25 5 -21 11 -24 28 -19 11 3 25 10 30 15 18
16 -57 172 -84 176 -8 2 -22 -1 -30 -6 -12 -9 -12 -14 3 -45 l17 -36 -51 0
c-38 0 -48 3 -42 13 4 7 41 61 81 119 39 59 72 109 72 112 0 2 -14 9 -30 15
-33 11 -29 15 -84 -81 -15 -27 -30 -48 -33 -48 -4 0 -14 7 -24 16 -17 15 -16
20 27 98 24 46 44 87 44 93 0 6 -12 15 -28 21 -27 9 -28 8 -65 -71z"/>
<path d="M6310 3290 l0 -39 -127 -3 c-123 -3 -129 -2 -168 23 -79 51 -84 53
-105 27 -25 -30 -25 -33 3 -45 12 -6 43 -27 69 -46 l47 -36 16 22 c8 12 15 16
15 9 0 -9 28 -12 103 -12 65 0 97 -4 88 -9 -12 -8 -12 -12 -2 -25 12 -14 4
-16 -78 -16 l-91 0 0 -30 c0 -23 4 -30 20 -30 11 0 20 -5 20 -10 0 -21 -40
-89 -61 -103 -18 -13 -19 -18 -7 -36 7 -12 17 -21 22 -21 19 0 78 78 90 120
10 33 19 46 34 48 18 3 22 -2 22 -25 0 -53 -11 -73 -37 -73 -19 0 -24 -4 -19
-16 3 -9 6 -20 6 -25 0 -15 67 -10 80 6 7 9 15 50 18 92 3 53 8 71 14 59 5 -9
13 -14 19 -11 5 4 9 -31 9 -84 l0 -91 30 0 30 0 0 90 c0 74 3 90 14 88 8 -2
22 6 30 17 14 19 15 15 16 -48 0 -61 -2 -69 -20 -74 -16 -4 -19 -11 -14 -27 4
-11 7 -22 8 -23 5 -7 146 23 146 31 0 5 13 -2 28 -17 l29 -27 18 20 c18 20 18
21 -2 43 -39 42 -72 127 -50 127 7 0 19 5 27 10 13 9 11 13 -9 29 -24 18 -25
18 -73 -4 -27 -13 -58 -20 -69 -18 -18 5 -18 7 -5 29 12 17 13 24 3 27 -6 3
34 6 91 6 l102 1 0 30 0 30 -130 0 -130 0 0 40 c0 39 -1 40 -35 40 -34 0 -35
-1 -35 -40z m80 -111 c0 -15 -40 -79 -48 -79 -4 1 -16 21 -28 45 l-21 45 48 0
c30 0 49 -4 49 -11z m147 -174 c-1 -1 -14 -5 -29 -9 -27 -6 -28 -5 -28 38 0
34 4 45 18 48 12 3 20 -7 29 -36 7 -22 12 -40 10 -41z"/>
<path d="M1940 3250 l0 -70 -165 0 -165 0 0 -35 0 -35 165 0 165 0 -2 -247 -3
-248 -73 -3 c-65 -3 -73 -5 -67 -20 4 -9 10 -25 13 -35 4 -17 14 -19 82 -15
121 5 119 2 122 222 l3 181 34 -62 c50 -93 130 -183 209 -237 l71 -49 25 29
c14 16 26 32 26 35 0 3 -19 15 -42 25 -24 10 -79 54 -123 97 l-80 79 56 52
c32 28 73 69 93 92 l35 41 -30 22 -29 22 -28 -33 c-14 -18 -50 -58 -79 -88
l-52 -55 -40 86 c-23 48 -41 92 -41 98 0 7 56 11 168 13 l167 3 3 33 3 32 -51
0 -50 0 16 24 c15 24 15 25 -23 49 -21 13 -57 35 -80 48 l-42 24 -23 -22 c-12
-12 -20 -24 -17 -26 2 -2 32 -20 67 -41 34 -21 62 -42 62 -47 0 -6 -42 -9
-102 -7 l-103 3 -3 68 -3 67 -34 0 -35 0 0 -70z"/>
<path d="M4335 3299 c-28 -10 -63 -17 -79 -14 l-28 5 7 -135 7 -135 -31 0 -31
0 0 -80 0 -80 29 0 c29 0 30 2 33 53 l3 52 295 0 295 0 3 -52 3 -53 35 0 34 0
0 80 0 80 -36 0 -36 0 6 48 c3 26 8 86 11 135 l7 87 -107 0 c-105 0 -106 0
-103 -22 3 -21 9 -23 71 -26 58 -2 68 -6 65 -20 -3 -13 -16 -18 -66 -20 -58
-3 -62 -4 -62 -27 0 -24 3 -25 60 -25 53 0 60 -2 60 -20 0 -18 -7 -20 -65 -20
-63 0 -65 -1 -65 -25 0 -24 2 -25 64 -25 59 0 64 -2 59 -20 -5 -18 -14 -20
-84 -20 -44 0 -79 3 -79 7 0 3 7 14 16 24 14 16 14 19 -11 35 l-26 17 21 22
c24 25 26 45 5 45 -20 0 -19 10 3 26 16 13 16 15 -7 34 l-24 21 22 22 c27 30
27 34 -6 40 -19 3 -31 -1 -43 -15 -15 -19 -18 -19 -46 -5 -25 13 -32 13 -48 1
-18 -13 -18 -14 4 -32 l23 -19 -35 -21 c-26 -16 -51 -22 -97 -22 -54 0 -61 2
-61 20 0 11 7 20 15 20 15 0 107 29 114 36 5 5 -30 44 -38 43 -3 0 -28 -9 -56
-20z m234 -103 c9 -11 10 -20 1 -35 -12 -24 -23 -26 -52 -10 -15 8 -27 8 -46
-1 l-26 -11 29 -19 28 -18 -34 -21 -34 -21 -3 25 c-3 22 -8 24 -65 27 -49 2
-62 6 -65 21 -3 15 5 17 62 17 59 0 66 2 66 20 0 17 3 18 19 8 15 -9 25 -7 52
10 40 26 52 27 68 8z m3 -143 c29 -26 22 -33 -34 -33 l-53 1 30 24 c36 30 34
29 57 8z m-134 -5 c23 -23 12 -28 -58 -28 -63 0 -70 2 -70 20 0 18 7 20 58 20
32 0 63 -5 70 -12z"/>
<path d="M5312 3248 l3 -33 233 -3 232 -2 0 35 0 35 -236 0 -235 0 3 -32z"/>
<path d="M760 3235 l0 -35 186 -2 185 -3 -32 -50 c-49 -75 -206 -224 -285
-271 -38 -22 -69 -45 -69 -50 0 -5 8 -20 17 -33 l18 -25 42 24 c58 32 152 104
216 165 l52 51 0 -233 0 -233 35 0 35 0 0 280 0 280 33 50 32 50 133 0 132 0
0 35 0 35 -365 0 -365 0 0 -35z"/>
<path d="M5500 3121 c-25 -42 -45 -80 -45 -86 0 -5 24 -47 54 -92 51 -76 55
-81 77 -70 13 5 24 15 24 21 0 6 -20 41 -45 78 l-45 67 41 65 c22 36 38 69 35
74 -3 5 -16 12 -28 14 -20 4 -30 -7 -68 -71z"/>
<path d="M5350 3114 c-23 -41 -40 -78 -38 -82 2 -4 25 -44 51 -89 47 -78 50
-81 73 -71 13 6 24 16 24 21 0 9 -46 91 -72 128 -9 12 -2 30 30 85 41 71 41
84 -5 84 -16 0 -31 -17 -63 -76z"/>
<path d="M5639 3112 l-47 -77 30 -40 c17 -22 43 -61 60 -87 27 -44 31 -46 54
-36 13 6 24 17 24 24 0 6 -20 39 -45 73 -25 34 -45 64 -45 69 0 4 18 36 40 71
21 36 37 68 34 73 -3 4 -17 8 -32 8 -23 -1 -34 -13 -73 -78z"/>
<path d="M5867 3065 c-17 -24 -17 -24 15 -41 18 -9 52 -30 74 -45 l42 -29 17
26 c9 14 14 31 12 38 -5 12 -117 76 -133 76 -5 0 -17 -12 -27 -25z"/>
<path d="M1672 3052 l-22 -17 45 -45 c25 -25 57 -61 71 -82 l26 -37 29 21 28
21 -21 31 c-30 43 -110 126 -123 126 -5 0 -20 -8 -33 -18z"/>
<path d="M1192 3037 l-22 -23 70 -49 c39 -26 105 -79 146 -118 l75 -70 31 30
30 31 -68 56 c-72 59 -202 152 -226 161 -8 3 -24 -5 -36 -18z"/>
<path d="M4320 2890 l0 -29 153 -3 152 -3 -42 -22 c-23 -13 -49 -23 -58 -23
-8 0 -15 -9 -15 -20 0 -19 -7 -20 -170 -20 l-170 0 0 -30 0 -30 168 -2 167 -3
0 -50 0 -50 -64 -3 c-60 -3 -63 -4 -57 -25 3 -12 6 -25 6 -29 0 -13 123 -9
150 5 22 11 26 20 30 82 l5 70 173 3 173 2 -3 28 -3 27 -164 5 -164 5 37 18
c21 10 63 34 94 53 l56 36 -23 19 c-21 17 -43 19 -227 19 l-204 0 0 -30z"/>
<path d="M6138 2813 c-3 -112 -21 -166 -69 -219 -20 -21 -20 -21 7 -38 25 -17
27 -17 55 10 15 15 36 47 46 70 l18 44 143 0 142 0 0 -70 0 -70 35 0 35 0 0
190 0 190 -35 0 c-32 0 -35 -2 -35 -30 l0 -30 -135 0 -135 0 0 30 c0 27 -3 30
-34 30 l-34 0 -4 -107z m342 -43 l0 -30 -135 0 -135 0 0 30 0 30 135 0 135 0
0 -30z"/>
<path d="M5976 2834 c-4 -15 -29 -76 -56 -137 -28 -61 -49 -111 -47 -112 1 -1
13 -9 27 -18 13 -9 27 -17 31 -17 7 0 109 251 109 268 0 11 -38 42 -51 42 -4
0 -10 -12 -13 -26z"/>
<path d="M1730 2765 c-74 -41 -136 -79 -138 -84 -2 -6 4 -21 13 -35 17 -25 18
-25 48 -9 47 24 247 144 247 149 0 9 -24 54 -29 54 -3 0 -67 -34 -141 -75z"/>
<path d="M5024 2753 c-12 -48 -25 -95 -28 -104 -5 -10 1 -19 19 -27 14 -7 27
-12 29 -12 9 0 47 141 49 180 2 41 0 45 -23 48 -24 3 -26 -2 -46 -85z"/>
<path d="M5225 2830 c-4 -6 0 -32 8 -58 9 -26 18 -60 22 -75 5 -26 9 -28 33
-22 15 4 28 8 29 9 4 3 -29 120 -38 138 -11 20 -44 24 -54 8z"/>
<path d="M5340 2810 l0 -30 85 0 85 0 0 -75 0 -75 -115 0 -115 0 0 -35 0 -35
255 0 255 0 0 35 0 35 -105 0 -105 0 0 75 0 75 90 0 90 0 0 30 0 30 -210 0
-210 0 0 -30z"/>
<path d="M3610 2189 c-13 -24 -32 -57 -42 -72 -29 -40 -11 -48 21 -9 24 28 34
32 75 32 40 0 47 -3 42 -17 -3 -10 -12 -47 -21 -83 -9 -36 -23 -80 -31 -99
-13 -30 -17 -33 -49 -29 -23 3 -35 0 -35 -8 0 -35 85 -23 104 15 13 26 66 217
66 239 0 8 -20 12 -55 12 -54 0 -55 1 -44 21 7 14 8 24 1 31 -7 7 -18 -4 -32
-33z"/>
<path d="M4375 2211 c-5 -18 -15 -21 -61 -21 -34 0 -64 6 -80 16 -18 12 -28
14 -36 6 -7 -7 -3 -15 15 -26 13 -9 29 -16 33 -15 5 1 30 1 56 0 38 -1 46 -4
42 -16 -4 -10 -20 -15 -46 -15 -34 0 -39 -3 -33 -18 3 -11 -3 -30 -16 -45 -32
-41 -4 -32 30 10 17 20 33 35 35 32 11 -10 -7 -49 -22 -49 -12 0 -13 -3 -4
-12 16 -16 39 5 47 43 10 43 26 24 19 -22 -4 -26 -3 -39 5 -39 6 0 14 18 17
39 4 22 13 42 21 46 16 5 15 -18 -1 -57 -7 -14 -3 -15 28 -8 21 4 39 4 42 -1
12 -21 22 4 12 31 -8 23 -7 34 3 46 11 14 9 15 -22 9 -29 -5 -36 -3 -36 9 0
12 11 16 43 16 24 0 46 5 49 10 4 6 -17 10 -55 10 -51 0 -60 3 -58 16 4 25
-19 28 -27 5z m25 -47 c0 -11 -21 -44 -28 -44 -4 0 -8 11 -8 25 -2 18 3 25 17
25 10 0 19 -3 19 -6z m53 -64 c4 -15 0 -20 -13 -20 -13 0 -17 5 -13 20 3 11 9
20 13 20 4 0 10 -9 13 -20z"/>
<path d="M3482 2196 c-6 -14 -21 -26 -34 -28 -21 -3 -25 -14 -45 -108 -36
-175 -36 -170 -18 -170 8 0 15 7 15 15 0 11 13 15 54 15 l53 0 22 108 c27 138
27 142 -4 142 -22 0 -24 3 -15 19 13 26 13 31 -3 31 -8 0 -19 -11 -25 -24z
m38 -73 c-1 -50 -11 -63 -51 -63 -38 0 -39 1 -33 28 11 49 13 52 49 52 27 0
35 -4 35 -17z m-20 -102 c0 -5 -3 -23 -6 -40 -6 -28 -10 -31 -46 -31 -37 0
-40 2 -34 23 3 12 6 30 6 40 0 13 9 17 40 17 22 0 40 -4 40 -9z"/>
<path d="M3834 2191 c-10 -16 -26 -32 -37 -35 -19 -5 -19 -5 2 -34 20 -28 20
-30 2 -46 -9 -9 -23 -16 -29 -16 -7 0 -12 -7 -12 -16 0 -13 7 -15 31 -10 25 5
29 3 25 -12 -12 -45 -27 -134 -23 -139 14 -13 25 12 37 82 10 60 16 75 31 75
9 0 19 -6 22 -12 9 -26 19 3 13 37 -7 35 -40 53 -34 18 2 -13 -5 -19 -22 -21
-22 -4 -20 1 24 53 51 59 55 94 5 37 -37 -42 -59 -32 -26 11 37 50 40 57 23
57 -8 0 -23 -13 -32 -29z"/>
<path d="M4624 2213 c-35 -4 -44 -21 -44 -81 0 -25 -5 -35 -20 -39 -11 -3 -20
-10 -20 -17 0 -6 -3 -21 -6 -33 -5 -17 -2 -23 9 -23 9 0 17 10 19 23 3 21 7
22 136 25 l132 3 0 -26 c0 -28 15 -34 24 -9 9 25 7 52 -5 56 -7 2 -6 21 4 61
l15 57 -44 0 c-24 0 -44 -4 -44 -10 0 -5 11 -10 25 -10 14 0 25 -4 25 -10 0
-5 -13 -10 -30 -10 -16 0 -30 -4 -30 -10 0 -5 11 -10 25 -10 14 0 25 -4 25
-10 0 -5 -13 -10 -30 -10 -16 0 -30 -4 -30 -10 0 -5 11 -10 25 -10 14 0 25 -4
25 -10 0 -6 -29 -10 -67 -10 -47 0 -63 3 -53 10 8 5 24 7 34 4 14 -5 18 -2 13
9 -3 8 0 20 6 26 14 14 2 26 -15 15 -7 -5 -21 -7 -30 -6 -12 2 -16 -2 -12 -11
3 -8 0 -18 -7 -23 -7 -4 -15 -2 -17 4 -2 7 -15 12 -28 12 -13 0 -24 5 -24 10
0 6 11 10 24 10 14 0 28 5 31 10 4 6 -7 10 -24 10 -40 0 -40 16 -1 25 17 4 30
11 30 16 0 5 -3 8 -7 7 -5 0 -22 -3 -39 -5z m41 -113 c4 -6 -8 -10 -29 -10
-20 0 -36 5 -36 10 0 6 13 10 29 10 17 0 33 -4 36 -10z"/>
<path d="M4699 2210 c-1 -3 -1 -9 0 -14 1 -5 -4 -13 -11 -17 -7 -4 -9 -11 -5
-15 3 -4 12 -2 20 4 7 6 24 8 38 5 20 -6 22 -4 12 9 -9 10 -9 18 -2 25 7 7 1
10 -20 9 -17 -1 -31 -3 -32 -6z"/>
<path d="M4998 2213 c-23 -4 -28 -11 -33 -41 -12 -72 -16 -82 -30 -82 -8 0
-15 -6 -15 -12 0 -7 -3 -23 -6 -35 -5 -17 -2 -23 9 -23 9 0 17 10 19 23 3 21
7 22 136 25 l132 3 0 -26 c0 -28 15 -34 24 -9 10 25 7 52 -6 56 -9 3 -8 19 4
61 l17 57 -45 0 c-24 0 -44 -4 -44 -10 0 -5 11 -10 25 -10 14 0 25 -4 25 -10
0 -5 -13 -10 -30 -10 -16 0 -30 -4 -30 -10 0 -5 11 -10 25 -10 14 0 25 -4 25
-10 0 -5 -13 -10 -30 -10 -16 0 -30 -4 -30 -10 0 -5 11 -10 25 -10 14 0 25 -4
25 -10 0 -6 -29 -10 -67 -10 -47 0 -63 3 -53 10 8 5 24 7 34 4 14 -5 18 -2 13
9 -3 8 0 20 6 26 14 14 2 26 -15 15 -7 -5 -21 -7 -30 -6 -12 2 -16 -2 -12 -11
3 -8 -2 -17 -11 -21 -9 -3 -13 -10 -10 -16 4 -6 -8 -10 -29 -10 -20 0 -36 5
-36 10 0 6 14 10 30 10 17 0 30 5 30 10 0 6 -11 10 -25 10 -14 0 -25 5 -25 10
0 6 11 10 24 10 14 0 28 5 31 10 4 6 -7 10 -24 10 -40 0 -40 16 -1 25 17 4 30
11 30 16 0 9 -4 9 -52 2z"/>
<path d="M5079 2210 c-1 -3 -1 -9 0 -14 1 -5 -4 -13 -11 -17 -7 -4 -9 -11 -5
-15 3 -4 12 -2 20 4 7 6 24 8 38 5 20 -6 22 -4 12 9 -9 10 -9 18 -2 25 7 7 1
10 -20 9 -17 -1 -31 -3 -32 -6z"/>
<path d="M5719 2180 c-38 -43 -34 -67 6 -30 24 23 45 20 45 -6 0 -9 6 -14 13
-11 6 2 11 12 11 21 -1 11 6 16 24 16 19 0 23 -3 15 -11 -6 -6 -9 -18 -6 -25
4 -11 -7 -14 -51 -14 -31 0 -56 -4 -56 -10 0 -5 25 -10 55 -10 30 0 55 -4 55
-10 0 -6 -33 -10 -80 -10 -64 0 -80 -3 -80 -15 0 -12 15 -15 76 -15 47 0 73
-4 69 -10 -3 -5 -31 -10 -61 -10 -30 0 -54 -4 -54 -10 0 -5 25 -10 55 -10 30
0 55 -4 55 -10 0 -6 -28 -10 -65 -10 -51 0 -65 -3 -65 -15 0 -12 13 -15 60
-15 33 0 60 -4 60 -10 0 -6 -32 -10 -75 -10 -43 0 -75 -4 -75 -10 0 -6 30 -10
70 -10 63 0 70 -2 70 -20 0 -11 5 -20 11 -20 6 0 13 9 16 20 5 18 14 20 79 20
40 0 76 5 79 10 4 6 -22 10 -69 10 -91 0 -102 18 -14 22 38 2 63 8 66 16 3 9
-13 12 -57 12 -34 0 -61 4 -61 10 0 6 27 10 60 10 53 0 60 2 60 19 0 12 8 21
22 23 29 4 36 28 8 28 -17 0 -20 4 -15 20 6 19 2 20 -55 20 -52 0 -61 3 -58
16 2 9 11 22 21 28 15 9 21 7 36 -13 12 -16 21 -20 25 -12 4 6 4 16 1 21 -4 6
10 10 34 10 22 0 43 5 46 10 4 6 -17 10 -55 10 -51 0 -61 3 -56 15 3 9 0 15
-8 15 -7 0 -19 -7 -26 -15 -8 -10 -30 -15 -62 -15 -40 0 -49 3 -44 15 11 28
-19 15 -55 -25z m221 -90 c0 -5 -21 -10 -46 -10 -27 0 -43 4 -39 10 3 6 24 10
46 10 21 0 39 -4 39 -10z m-10 -50 c0 -5 -18 -10 -40 -10 -22 0 -40 5 -40 10
0 6 18 10 40 10 22 0 40 -4 40 -10z"/>
<path d="M3937 2204 c-19 -20 2 -24 93 -22 58 2 100 7 100 13 0 11 -182 20
-193 9z"/>
<path d="M5324 2198 c-4 -6 -2 -14 4 -16 7 -2 10 -7 7 -12 -6 -10 40 -41 49
-33 3 4 -1 15 -11 25 -15 17 -14 18 24 18 l40 0 -10 -50 c-7 -39 -14 -50 -28
-50 -11 0 -19 -7 -19 -16 0 -12 6 -15 25 -10 14 4 25 2 25 -3 0 -6 -21 -11
-47 -13 -48 -3 -48 -3 -59 -48 -6 -25 -13 -58 -17 -75 l-6 -30 122 1 122 1 12
59 c20 96 21 94 -42 94 -44 0 -53 3 -49 15 4 10 0 15 -11 15 -11 0 -15 6 -11
18 2 9 7 33 11 52 4 19 9 43 11 53 5 15 -3 17 -65 17 -43 0 -73 -5 -77 -12z
m214 -200 c-5 -15 -188 -24 -188 -10 0 18 16 22 103 22 66 0 88 -3 85 -12z
m-14 -63 c-5 -12 -25 -15 -95 -15 -72 0 -89 3 -89 15 0 12 17 15 95 15 80 0
93 -2 89 -15z"/>
<path d="M5490 2195 c0 -8 5 -15 12 -15 6 0 8 -3 5 -7 -8 -7 21 -43 35 -43 15
0 8 29 -9 39 -14 8 -9 10 26 11 l44 0 -7 -37 c-3 -21 -6 -44 -6 -50 0 -7 -11
-13 -25 -13 -26 0 -33 -14 -14 -25 5 -4 21 -4 34 -1 19 5 26 16 35 64 6 31 14
65 16 75 5 15 -3 17 -70 17 -61 0 -76 -3 -76 -15z"/>
<path d="M6090 2200 c0 -6 27 -10 60 -10 33 0 60 4 60 10 0 6 -27 10 -60 10
-33 0 -60 -4 -60 -10z"/>
<path d="M6237 2203 c-18 -17 -2 -23 59 -23 l67 0 -7 -42 c-4 -22 -9 -45 -12
-50 -3 -4 -33 -8 -68 -8 l-62 0 -17 -87 c-16 -83 -16 -89 0 -100 18 -14 99
-18 128 -7 19 8 48 61 40 74 -10 16 -25 11 -25 -8 0 -30 -21 -42 -73 -42 l-50
0 7 54 c9 83 12 86 66 86 30 0 50 -5 53 -12 9 -25 25 7 40 82 9 41 13 78 11
82 -6 10 -148 11 -157 1z"/>
<path d="M1782 2173 c-6 -2 -9 -9 -6 -15 3 -5 3 -29 0 -53 -6 -38 -11 -44 -39
-50 l-32 -8 28 -4 c31 -5 35 -23 12 -66 -8 -15 -9 -25 -3 -21 7 5 9 0 5 -15
-7 -30 19 -40 41 -15 16 17 16 17 0 5 -16 -12 -18 -11 -18 10 0 13 9 71 20
129 11 58 20 106 20 107 0 4 -13 2 -28 -4z"/>
<path d="M3936 2133 c-28 -34 -28 -36 -12 -69 8 -19 20 -34 26 -34 13 0 13 13
-2 44 -9 21 -8 29 4 43 23 27 29 41 20 47 -4 2 -21 -11 -36 -31z"/>
<path d="M4002 2133 c-29 -37 -29 -39 -14 -70 9 -18 22 -33 29 -33 17 0 16 5
-2 40 -14 27 -13 30 10 59 14 16 21 32 16 35 -5 3 -23 -11 -39 -31z"/>
<path d="M4066 2133 c-28 -35 -28 -35 -11 -73 11 -24 22 -37 31 -33 10 4 10
11 -3 39 -15 30 -15 35 -1 51 23 27 29 41 20 47 -4 2 -21 -11 -36 -31z"/>
<path d="M6060 2150 c0 -6 32 -10 75 -10 43 0 75 4 75 10 0 6 -32 10 -75 10
-43 0 -75 -4 -75 -10z"/>
<path d="M1038 2141 c11 -6 10 -26 -4 -107 -9 -54 -21 -105 -26 -111 -8 -10
-4 -13 15 -13 19 0 24 4 21 18 -3 9 -1 35 3 57 7 31 14 41 31 43 62 9 72 -90
12 -111 -12 -4 -11 -6 3 -6 26 -1 67 44 67 73 0 34 -44 68 -77 60 -25 -7 -25
-6 -18 37 4 24 9 47 12 52 8 13 40 8 54 -9 11 -14 11 -21 -3 -45 -19 -33 -10
-38 17 -9 23 25 13 65 -17 74 -35 9 -105 7 -90 -3z"/>
<path d="M2342 2143 c18 -3 30 -13 37 -31 l9 -27 1 26 c1 28 -15 40 -52 38
-17 -2 -16 -3 5 -6z"/>
<path d="M3028 2138 c11 -14 -9 -162 -28 -205 -9 -23 -8 -23 64 -23 72 0 74 0
79 28 l5 27 -15 -22 c-20 -29 -103 -34 -103 -6 0 49 33 189 48 201 13 10 10
12 -22 12 -30 0 -36 -3 -28 -12z"/>
<path d="M2286 2118 c-25 -35 -19 -57 24 -95 43 -39 51 -71 24 -97 -8 -9 -11
-16 -5 -16 14 0 51 50 51 70 0 10 -17 33 -37 51 -50 42 -55 52 -43 83 12 32 6
33 -14 4z"/>
<path d="M3210 2114 c0 -9 5 -14 12 -12 18 6 21 28 4 28 -9 0 -16 -7 -16 -16z"/>
<path d="M5513 2112 c-49 -14 -71 -32 -40 -32 24 0 107 32 107 41 0 11 -1 11
-67 -9z"/>
<path d="M4165 2110 c-4 -6 4 -19 17 -29 17 -15 26 -17 36 -8 11 9 9 14 -10
29 -27 20 -34 22 -43 8z"/>
<path d="M5331 2100 c-27 -10 -39 -20 -32 -24 13 -9 101 22 101 35 0 13 -18
10 -69 -11z"/>
<path d="M6070 2100 c0 -5 24 -10 54 -10 30 0 58 5 61 10 4 6 -17 10 -54 10
-34 0 -61 -4 -61 -10z"/>
<path d="M3587 2073 c-9 -15 37 -93 50 -85 9 6 7 18 -7 50 -18 40 -33 52 -43
35z"/>
<path d="M1206 2051 c-3 -5 -1 -11 5 -13 9 -3 9 -17 0 -56 -20 -96 -11 -108
20 -26 11 28 15 54 10 71 -8 28 -25 41 -35 24z"/>
<path d="M1264 2039 c-11 -14 -13 -19 -4 -13 8 4 23 7 34 5 11 -1 17 2 14 10
-7 21 -24 21 -44 -2z"/>
<path d="M1356 2029 c-42 -36 -64 -92 -46 -114 17 -20 25 -19 57 11 27 24 27
25 2 10 -30 -19 -39 -13 -39 24 0 35 35 80 62 80 18 0 19 -4 14 -32 -9 -43 -7
-91 2 -100 5 -5 17 -1 28 7 18 14 18 15 0 8 -17 -6 -18 -3 -12 28 20 101 20
104 -8 107 -16 1 -38 -9 -60 -29z"/>
<path d="M1500 2058 c0 -1 -2 -30 -4 -63 -2 -33 -6 -65 -7 -71 -2 -7 0 -13 6
-14 11 -1 30 71 30 114 0 16 -6 31 -12 33 -7 3 -13 3 -13 1z"/>
<path d="M1550 2033 c-18 -20 -19 -23 -4 -10 42 35 53 14 35 -66 -7 -30 -6
-39 6 -44 8 -3 20 0 26 7 9 10 9 11 -1 6 -10 -6 -12 8 -10 60 3 80 -12 93 -52
47z"/>
<path d="M1846 2029 c-42 -50 -29 -129 22 -129 13 0 12 4 -6 20 -28 26 -29 79
-3 111 16 20 23 22 38 13 26 -16 30 -89 6 -118 -15 -17 -13 -17 9 3 35 31 45
74 24 106 -23 35 -58 32 -90 -6z"/>
<path d="M1984 2045 c-18 -14 -18 -15 0 -8 20 7 20 9 1 -107 -6 -33 -6 -34 9
-16 9 11 16 27 16 35 0 9 7 29 15 44 8 15 10 25 5 22 -6 -4 -10 5 -10 19 0 30
-8 32 -36 11z"/>
<path d="M2055 2046 c-20 -15 -20 -15 1 -10 30 8 34 -3 22 -65 -11 -60 -2 -79
28 -56 17 13 17 14 1 9 -17 -6 -18 -3 -11 32 19 92 4 123 -41 90z"/>
<path d="M2487 2045 c27 -19 38 -67 23 -95 -6 -12 -9 -24 -7 -27 9 -8 37 54
37 80 0 28 -28 57 -56 57 -17 0 -17 -1 3 -15z"/>
<path d="M2580 2050 c-12 -8 -12 -10 -1 -10 11 0 12 -11 7 -50 -4 -28 -10 -58
-13 -66 -4 -11 -2 -15 7 -12 18 6 36 74 32 115 -4 35 -9 38 -32 23z"/>
<path d="M2645 2046 c-19 -13 -18 -14 8 -9 31 6 31 5 17 -68 -12 -60 -2 -78
26 -52 11 10 14 14 6 9 -11 -8 -13 2 -10 59 3 75 -8 90 -47 61z"/>
<path d="M2805 2050 c-3 -5 3 -10 14 -10 15 0 21 -6 21 -23 0 -34 -47 -97 -72
-97 -14 0 -9 59 8 93 l15 32 -20 -25 c-11 -14 -26 -40 -32 -58 -21 -62 29 -78
72 -23 l21 26 -7 -50 c-4 -27 -14 -63 -21 -80 l-15 -30 21 21 c14 14 27 51 40
118 11 54 20 101 20 105 0 11 -58 12 -65 1z"/>
<path d="M3191 2051 c-11 -7 -11 -9 0 -13 10 -3 11 -16 3 -62 -9 -48 -8 -59 3
-63 8 -3 20 0 26 7 9 10 9 11 -2 5 -12 -7 -13 1 -7 41 11 82 11 87 1 90 -5 2
-16 0 -24 -5z"/>
<path d="M6060 2050 c0 -5 24 -10 54 -10 30 0 58 5 61 10 4 6 -17 10 -54 10
-34 0 -61 -4 -61 -10z"/>
<path d="M2431 2024 c-26 -33 -27 -85 -3 -107 29 -27 49 -21 24 6 -26 27 -29
73 -6 105 21 31 10 28 -15 -4z"/>
<path d="M4424 2037 c-5 -13 -20 -17 -69 -17 -40 0 -65 4 -67 12 -8 22 -25 -1
-32 -41 -3 -22 -17 -53 -31 -69 -18 -22 -22 -33 -14 -38 7 -4 23 6 38 25 24
29 30 31 89 31 l64 0 -7 -30 c-5 -23 -3 -30 8 -30 17 0 51 150 37 164 -6 6
-12 3 -16 -7z m-14 -57 c0 -6 -28 -10 -65 -10 -37 0 -65 4 -65 10 0 6 28 10
65 10 37 0 65 -4 65 -10z"/>
<path d="M1670 2008 c-40 -67 -16 -128 36 -93 29 19 32 30 4 15 -11 -6 -25 -8
-30 -5 -15 9 -12 52 5 85 21 40 10 38 -15 -2z"/>
<path d="M4590 2030 c0 -6 30 -10 68 -11 59 0 64 -2 42 -12 -14 -6 -27 -15
-30 -19 -3 -4 -39 -8 -79 -10 -48 -2 -76 -7 -79 -15 -3 -10 16 -13 72 -13 42
0 76 -4 76 -9 0 -25 -14 -41 -36 -41 -13 0 -24 -5 -24 -11 0 -6 16 -9 37 -7
32 3 38 7 45 36 l9 32 74 0 c60 0 75 3 75 15 0 12 -14 15 -67 15 l-68 1 37 19
c64 34 56 40 -51 40 -61 0 -101 -4 -101 -10z"/>
<path d="M4970 2030 c0 -6 30 -10 68 -11 59 0 64 -2 42 -12 -14 -6 -27 -15
-30 -19 -3 -4 -39 -8 -79 -10 -48 -2 -76 -7 -79 -15 -3 -10 16 -13 72 -13 42
0 76 -4 76 -9 0 -25 -14 -41 -36 -41 -13 0 -24 -4 -24 -10 0 -12 50 -13 66 -2
6 4 14 19 18 35 6 26 8 27 81 27 60 0 75 3 75 15 0 12 -15 15 -72 15 l-73 0
41 19 c73 33 64 41 -45 41 -61 0 -101 -4 -101 -10z"/>
<path d="M4158 1959 c-24 -38 -33 -61 -26 -65 19 -12 89 99 72 115 -5 5 -24
-15 -46 -50z"/>
<path d="M3758 1967 c-10 -23 -18 -46 -18 -50 0 -12 17 -8 23 6 3 6 12 29 21
50 12 28 13 37 4 37 -7 0 -21 -19 -30 -43z"/>
<path d="M3850 1998 c0 -26 12 -58 22 -58 14 0 5 63 -9 68 -7 2 -13 -2 -13
-10z"/>
<path d="M3900 1995 c0 -11 11 -15 36 -15 33 0 35 -2 32 -27 -3 -26 -7 -28
-52 -33 -27 -3 -51 -11 -54 -17 -3 -10 23 -13 107 -13 92 0 111 3 111 15 0 11
-11 15 -43 15 -42 0 -43 1 -39 29 4 27 8 30 45 33 22 2 42 9 45 16 3 9 -20 12
-92 12 -79 0 -96 -3 -96 -15z"/>
<path d="M6046 1995 c-13 -35 -18 -115 -7 -115 6 0 11 5 11 10 0 6 22 10 48
10 l49 0 10 55 10 55 -58 0 c-41 0 -58 -4 -63 -15z m84 -24 c0 -37 -12 -51
-41 -51 -30 0 -33 8 -23 48 8 30 64 32 64 3z"/>
<path d="M2240 1943 c0 -27 4 -32 31 -38 17 -4 33 -4 36 -1 4 3 -1 6 -10 6
-10 0 -26 15 -37 33 l-20 32 0 -32z"/>
<path d="M2720 1825 c0 -15 46 -32 57 -21 4 3 -1 6 -9 6 -9 0 -18 7 -22 15 -7
19 -26 19 -26 0z"/>
</g>
</svg>
